<!-- Generator: Adobe Illustrator 18.1.1, SVG Export Plug-In  -->
<svg version="1.1"
	 xmlns="http://www.w3.org/2000/svg" xmlns:xlink="http://www.w3.org/1999/xlink" xmlns:a="http://ns.adobe.com/AdobeSVGViewerExtensions/3.0/"
	 x="0px" y="0px" viewBox="0 0 270.6 115.3" enable-background="new 0 0 270.6 115.3"
	 xml:space="preserve">
<defs>
</defs>
<g>
	<g>
		<polygon fill="#FFFFFF" points="270.6,0 189.3,0 189.3,14.1 213.4,28 189.3,41.9 189.3,81.3 270.6,81.3 270.6,62.1 249,49.6 
			270.6,37.1 		"/>
		<polygon fill="#FFFFFF" points="40.6,23.3 27.2,0 0,0 0,81.3 17.9,81.3 25.5,68.1 33.1,81.3 49.6,81.3 57.2,68.1 64.8,81.3 
			81.3,81.3 81.3,0 54.1,0 		"/>
		<polygon fill="#FFFFFF" points="135.3,23.3 121.8,0 94.7,0 94.7,81.3 112.5,81.3 120.1,68.1 127.7,81.3 144.3,81.3 151.9,68.1 
			159.5,81.3 175.9,81.3 175.9,0 148.7,0 		"/>
	</g>
	<g>
		<path fill="#FF6D00" d="M0,101.5h10.1v2.2H2.4v3.7h6.8v2.2H2.4v5.5H0V101.5z"/>
		<path fill="#FF6D00" d="M16.9,101.4h2.2l6,13.6h-2.5l-1.4-3.3h-6.4l-1.4,3.3h-2.4L16.9,101.4z M20.3,109.7l-2.3-5.4l-2.3,5.4H20.3
			z"/>
		<path fill="#FF6D00" d="M28.3,101.5h6.1c1.5,0,2.8,0.4,3.5,1.2c0.6,0.6,0.9,1.3,0.9,2.3c0,1.6-0.9,2.5-1.9,3
			c1.6,0.5,2.7,1.4,2.7,3.3c0,2.4-2,3.7-5,3.7h-6.3V101.5z M33.9,107.2c1.5,0,2.6-0.6,2.6-1.9c0-1.1-0.9-1.7-2.4-1.7h-3.4v3.6H33.9z
			 M34.6,113c1.6,0,2.6-0.6,2.6-1.9c0-1.1-0.9-1.8-2.8-1.8h-3.8v3.7H34.6z"/>
		<path fill="#FF6D00" d="M43.2,101.5h6c3.2,0,5,1.7,5,4.3c0,2.2-1.3,3.6-3.2,4.1l3.7,5.1h-2.8l-3.4-4.7h-2.9v4.7h-2.4V101.5z
			 M49.1,108.2c1.7,0,2.8-0.9,2.8-2.3c0-1.5-1-2.2-2.8-2.2h-3.5v4.5H49.1z"/>
		<path fill="#FF6D00" d="M58.3,101.5h2.4v13.5h-2.4V101.5z"/>
		<path fill="#FF6D00" d="M64.7,108.3c0-3.8,2.9-7,7-7c2.5,0,4,0.9,5.3,2.1l-1.5,1.8c-1.1-1-2.2-1.7-3.8-1.7c-2.6,0-4.5,2.1-4.5,4.8
			c0,2.6,1.9,4.8,4.5,4.8c1.7,0,2.7-0.7,3.9-1.8l1.5,1.5c-1.4,1.5-3,2.4-5.5,2.4C67.6,115.3,64.7,112.2,64.7,108.3z"/>
		<path fill="#FF6D00" d="M85.3,101.4h2.2l6,13.6h-2.5l-1.4-3.3h-6.4l-1.4,3.3h-2.4L85.3,101.4z M88.7,109.7l-2.3-5.4l-2.3,5.4H88.7
			z"/>
		<path fill="#FF6D00" d="M98.3,103.7H94v-2.2h11v2.2h-4.3v11.3h-2.4V103.7z"/>
		<path fill="#FF6D00" d="M108.6,101.5h2.4v13.5h-2.4V101.5z"/>
		<path fill="#FF6D00" d="M115.6,101.5h2.2l7.2,9.4v-9.4h2.3v13.5h-2l-7.5-9.6v9.6h-2.3V101.5z"/>
		<path fill="#FF6D00" d="M131.2,108.3c0-3.8,2.9-7,7-7c2.4,0,3.8,0.7,5.2,1.8l-1.5,1.8c-1-0.9-2.1-1.4-3.8-1.4
			c-2.5,0-4.4,2.2-4.4,4.8c0,2.8,1.8,4.8,4.6,4.8c1.3,0,2.4-0.4,3.3-1v-2.5h-3.5v-2.1h5.8v5.7c-1.3,1.1-3.2,2.1-5.6,2.1
			C134,115.3,131.2,112.3,131.2,108.3z"/>
		<path fill="#FF6D00" d="M153.8,113.1l1.4-1.7c1.3,1.1,2.6,1.8,4.3,1.8c1.5,0,2.4-0.7,2.4-1.7c0-1-0.5-1.5-3.1-2.1
			c-2.9-0.7-4.5-1.5-4.5-4.1c0-2.3,1.9-3.9,4.6-3.9c2,0,3.5,0.6,4.9,1.7l-1.3,1.8c-1.2-0.9-2.4-1.4-3.7-1.4c-1.4,0-2.2,0.7-2.2,1.6
			c0,1,0.6,1.5,3.2,2.1c2.9,0.7,4.3,1.7,4.3,4c0,2.5-2,4-4.8,4C157.3,115.3,155.4,114.5,153.8,113.1z"/>
		<path fill="#FF6D00" d="M168.1,101.5h2.4v13.5h-2.4V101.5z"/>
		<path fill="#FF6D00" d="M175.1,101.5h2.2l7.2,9.4v-9.4h2.3v13.5h-2l-7.5-9.6v9.6h-2.3V101.5z"/>
		<path fill="#FF6D00" d="M190.7,108.3c0-3.8,2.9-7,7-7c2.5,0,4,0.9,5.3,2.1l-1.5,1.8c-1.1-1-2.2-1.7-3.8-1.7
			c-2.6,0-4.5,2.1-4.5,4.8c0,2.6,1.9,4.8,4.5,4.8c1.7,0,2.7-0.7,3.9-1.8l1.5,1.5c-1.4,1.5-3,2.4-5.5,2.4
			C193.7,115.3,190.7,112.2,190.7,108.3z"/>
		<path fill="#FF6D00" d="M206.6,101.5h10v2.1h-7.7v3.5h6.8v2.1h-6.8v3.6h7.7v2.1h-10.1V101.5z"/>
		<path fill="#FF6D00" d="M228.9,103.9l-2.4,0.7l-0.5-1.9l3.6-1.2h1.7v13.6h-2.4V103.9z"/>
		<path fill="#FF6D00" d="M236.9,113.9c-1-1-1.7-2.5-1.7-5.2c0-4.1,2-7.4,5.8-7.4c1.8,0,3,0.6,4.1,1.5l-1.3,1.8
			c-0.9-0.7-1.8-1.2-2.9-1.2c-2,0-3.1,1.8-3.2,4.3c0.7-0.7,1.6-1.4,3.2-1.4c2.6,0,4.7,1.5,4.7,4.3c0,2.7-2.2,4.6-5,4.6
			C239,115.3,237.8,114.8,236.9,113.9z M243.3,110.7c0-1.4-1.1-2.4-2.8-2.4s-2.7,1.1-2.7,2.4c0,1.4,1.1,2.4,2.8,2.4
			C242.2,113.2,243.3,112.2,243.3,110.7z"/>
		<path fill="#FF6D00" d="M255.5,103.6h-6.8v-2.1h9.5v1.8l-6.1,11.7h-2.7L255.5,103.6z"/>
		<path fill="#FF6D00" d="M260.8,113.2l4.7-4c1.9-1.6,2.5-2.4,2.5-3.7c0-1.3-0.9-2.1-2.2-2.1c-1.2,0-2.1,0.7-3.1,2l-1.7-1.3
			c1.3-1.8,2.6-2.8,5-2.8c2.6,0,4.5,1.6,4.5,4.1c0,2.1-1.1,3.3-3.5,5.2l-2.8,2.3h6.4v2.1h-9.8V113.2z"/>
	</g>
</g>
</svg>
