<?xml version="1.0" encoding="utf-8"?>
<!-- Generator: Adobe Illustrator 18.0.0, SVG Export Plug-In . SVG Version: 6.00 Build 0)  -->
<!DOCTYPE svg PUBLIC "-//W3C//DTD SVG 1.1//EN" "http://www.w3.org/Graphics/SVG/1.1/DTD/svg11.dtd">
<svg version="1.1" id="Layer_1" xmlns="http://www.w3.org/2000/svg" xmlns:xlink="http://www.w3.org/1999/xlink" x="0px" y="0px" width="21px" height="21px"
	 viewBox="0 0 22 22" enable-background="new 0 0 22 22" xml:space="preserve">
<g>
	<g>
		<path fill="#FF6D00" d="M2.5,21c-0.6,0-1.2-0.3-1.4-0.9c-0.4-0.9,0.2-2.2,1.5-3.5c1-1,2.5-1.8,4.3-2.5c1-1.8,1.9-3.7,2.5-5.4
			C8,6.7,7.7,4,8.2,2.5c0.3-1,0.9-1.3,1.3-1.5C10,0.9,10.6,1,11,1.5c0.6,0.6,0.8,1.9,0.7,3.9c-0.1,0.8-0.3,1.9-0.8,3.2
			c0,0,0,0.1,0.1,0.1c0.3,0.4,0.6,0.8,1,1.2c0.7,0.9,1.6,2,2.4,2.9c0.3,0,0.5,0,0.7,0c3,0,5,0.6,5.7,1.8c0.3,0.5,0.3,1,0,1.5
			c-0.4,0.6-1.2,1-2.1,1h0c-0.2,0-0.5,0-0.7-0.1c-1.2-0.2-2.5-1.1-4.2-2.9c-0.4,0-0.9,0.1-1.3,0.1c-1,0.1-2.8,0.3-4.7,0.9
			C7,16.7,5.3,19.7,4,20.5C3.5,20.8,3,21,2.5,21z M5.8,16c-0.9,0.4-1.7,1-2.3,1.5c-1.2,1.1-1.2,1.9-1.2,2c0,0,0.1,0.1,0.2,0.1
			c0.2,0,0.5-0.1,0.7-0.3C3.8,19,4.8,17.8,5.8,16z M15.7,14.2c1,0.9,1.8,1.5,2.6,1.6c0.2,0,0.3,0,0.5,0c0,0,0,0,0,0
			c0.5,0,0.9-0.2,1-0.3c0,0,0-0.1,0-0.2C19.4,14.9,18.3,14.3,15.7,14.2z M10.3,10c-0.5,1.1-1,2.4-1.6,3.6c1.5-0.4,2.9-0.6,3.7-0.6
			c0.1,0,0.2,0,0.3,0c-0.6-0.7-1.2-1.5-1.8-2.2C10.7,10.5,10.5,10.3,10.3,10z M10,2.3C10,2.3,9.9,2.3,10,2.3
			C9.7,2.4,9.6,2.6,9.5,2.9c-0.3,1-0.2,2.6,0.5,4.1c0.2-0.7,0.3-1.3,0.4-1.8C10.5,3.1,10.1,2.5,10,2.3C10,2.3,10,2.3,10,2.3z"/>
	</g>
</g>
</svg>
