<!-- Generator: Adobe Illustrator 18.1.1, SVG Export Plug-In  -->
<svg version="1.1"
	 xmlns="http://www.w3.org/2000/svg" xmlns:xlink="http://www.w3.org/1999/xlink" xmlns:a="http://ns.adobe.com/AdobeSVGViewerExtensions/3.0/"
	 x="0px" y="0px" width="21px" height="21px" viewBox="0 0 21 21" enable-background="new 0 0 21 21" xml:space="preserve">
<defs>
</defs>
<g>
	<path fill="#FF6D00" d="M6.5,1.5c0.6,0,1,0.4,1,1v4c0,0.3-0.1,0.5-0.3,0.7L5.1,9.3c1.4,2.8,3.8,5.1,6.6,6.6l2.1-2.1
		c0.2-0.2,0.4-0.3,0.7-0.3h4c0.6,0,1,0.4,1,1v4c0,0.6-0.4,1-1,1c-9.4,0-17-7.6-17-17c0-0.6,0.4-1,1-1H6.5 M6.5,0h-4
		C1.1,0,0,1.1,0,2.5C0,12.7,8.3,21,18.5,21c1.4,0,2.5-1.1,2.5-2.5v-4c0-1.4-1.1-2.5-2.5-2.5h-4c-0.7,0-1.3,0.3-1.8,0.7L11.5,14
		C9.6,12.9,8.1,11.4,7,9.6l1.3-1.3C8.7,7.8,9,7.2,9,6.5v-4C9,1.1,7.9,0,6.5,0L6.5,0z"/>
</g>
</svg>
