<!-- Generator: Adobe Illustrator 18.1.1, SVG Export Plug-In  -->
<svg version="1.1"
	 xmlns="http://www.w3.org/2000/svg" xmlns:xlink="http://www.w3.org/1999/xlink" xmlns:a="http://ns.adobe.com/AdobeSVGViewerExtensions/3.0/"
	 x="0px" y="0px" width="21px" height="21.3px" viewBox="0 0 21 21.3" enable-background="new 0 0 21 21.3" xml:space="preserve">
<defs>
</defs>
<g>
	<g>
		<path fill="#FF6D00" d="M6.5,1.5c1,0,1.9,0.3,2.6,0.8c0.5-0.1,1-0.1,1.5-0.1c4.7,0,8.6,3.8,8.6,8.6c0,0.6-0.1,1.2-0.2,1.8
			c0.3,0.7,0.5,1.4,0.5,2.2c0,2.7-2.2,5-5,5c-0.9,0-1.7-0.2-2.4-0.6c-0.5,0.1-1,0.1-1.6,0.1c-4.7,0-8.6-3.8-8.6-8.6
			C2,10.1,2.1,9.6,2.2,9C1.8,8.3,1.5,7.4,1.5,6.5C1.5,3.7,3.7,1.5,6.5,1.5 M6.5,0C2.9,0,0,2.9,0,6.5c0,1,0.2,1.9,0.6,2.8
			c-0.1,0.5-0.1,1-0.1,1.5c0,5.6,4.5,10.1,10.1,10.1c0.5,0,0.9,0,1.3-0.1c0.8,0.4,1.7,0.5,2.6,0.5c3.6,0,6.5-2.9,6.5-6.5
			c0-0.8-0.2-1.6-0.5-2.4c0.1-0.5,0.1-1.1,0.1-1.7c0-5.6-4.5-10.1-10.1-10.1c-0.4,0-0.8,0-1.2,0.1C8.5,0.2,7.5,0,6.5,0L6.5,0z"/>
	</g>
	<g>
		<path fill="#FF6D00" d="M10.5,4.7c0.8,0,1.4,0.1,2,0.3c0.6,0.2,1,0.4,1.4,0.7c0.4,0.3,0.7,0.6,0.8,0.9c0.2,0.3,0.3,0.7,0.3,1
			c0,0.3-0.1,0.6-0.4,0.8c-0.2,0.2-0.5,0.4-0.9,0.4c-0.3,0-0.6-0.1-0.7-0.2c-0.2-0.1-0.3-0.4-0.5-0.7c-0.2-0.4-0.5-0.7-0.8-1
			c-0.3-0.2-0.8-0.3-1.4-0.3c-0.6,0-1.1,0.1-1.5,0.4C8.5,7.2,8.4,7.4,8.4,7.8c0,0.2,0.1,0.4,0.2,0.5C8.6,8.4,8.8,8.5,9,8.7
			c0.2,0.1,0.5,0.2,0.7,0.3C10,9,10.4,9.1,10.9,9.2c0.7,0.2,1.3,0.3,1.9,0.5c0.6,0.2,1.1,0.4,1.5,0.7c0.4,0.3,0.7,0.6,1,1
			c0.2,0.4,0.4,0.9,0.4,1.5c0,0.7-0.2,1.4-0.6,1.9c-0.4,0.6-1,1-1.7,1.3c-0.8,0.3-1.7,0.5-2.7,0.5c-1.2,0-2.3-0.2-3.1-0.6
			c-0.6-0.3-1.1-0.7-1.4-1.3c-0.4-0.5-0.5-1-0.5-1.6c0-0.3,0.1-0.6,0.4-0.8C6.1,12.1,6.4,12,6.8,12c0.3,0,0.5,0.1,0.8,0.3
			C7.7,12.5,7.9,12.7,8,13c0.2,0.3,0.3,0.6,0.5,0.9c0.2,0.2,0.4,0.4,0.7,0.6c0.3,0.1,0.7,0.2,1.2,0.2c0.7,0,1.3-0.2,1.7-0.4
			c0.4-0.3,0.6-0.6,0.6-1.1c0-0.3-0.1-0.6-0.3-0.8c-0.2-0.2-0.5-0.4-0.9-0.5c-0.4-0.1-0.9-0.3-1.6-0.4c-0.9-0.2-1.6-0.4-2.3-0.7
			c-0.6-0.3-1.1-0.6-1.5-1.1C6,9.2,5.8,8.7,5.8,8c0-0.7,0.2-1.2,0.6-1.7C6.7,5.7,7.3,5.3,8,5.1C8.7,4.8,9.6,4.7,10.5,4.7 M10.5,3.2
			c-1.1,0-2.2,0.2-3,0.5C6.5,4,5.7,4.6,5.2,5.3C4.6,6.1,4.3,7,4.3,8c0,1,0.3,1.9,0.9,2.7c0.1,0.1,0.1,0.2,0.2,0.3
			C5.2,11,5,11.1,4.9,11.3C4.3,11.8,4,12.4,4,13.2c0,0.8,0.3,1.6,0.8,2.4c0.5,0.7,1.2,1.3,1.9,1.7c1,0.5,2.3,0.8,3.8,0.8
			c1.2,0,2.3-0.2,3.3-0.6c1-0.4,1.8-1,2.4-1.8c0.6-0.8,0.9-1.8,0.9-2.8c0-0.9-0.2-1.6-0.5-2.2c-0.2-0.4-0.5-0.8-0.9-1.1
			c0,0,0.1-0.1,0.1-0.1c0.5-0.5,0.8-1.2,0.8-1.9c0-0.6-0.2-1.1-0.4-1.7c-0.3-0.5-0.7-1-1.2-1.4c-0.5-0.4-1.2-0.7-1.9-1
			C12.3,3.3,11.5,3.2,10.5,3.2L10.5,3.2z M10.5,13.2c-0.4,0-0.6-0.1-0.6-0.1C9.8,13,9.7,13,9.7,13c0,0,0-0.1-0.1-0.1c0,0,0,0,0.1,0
			c0.4,0.1,0.8,0.2,1.1,0.3C10.7,13.2,10.6,13.2,10.5,13.2L10.5,13.2z"/>
	</g>
</g>
</svg>
